<svg width="541" height="165" viewBox="0 0 541 165" fill="none" xmlns="http://www.w3.org/2000/svg">
<g filter="url(#filter0_d_138_6628)">
<path d="M119.824 110.668C121.024 113.068 121.664 115.108 121.744 116.788C121.824 118.468 121.304 119.948 120.184 121.228C119.064 122.508 117.264 123.788 114.784 125.068C110.944 126.908 107.984 127.468 105.904 126.748C103.824 126.108 101.864 123.828 100.024 119.908L79.6244 78.1481L59.4644 120.028C57.5444 123.788 55.5444 125.988 53.4644 126.628C51.3844 127.348 48.4644 126.788 44.7044 124.948C42.2244 123.748 40.3844 122.508 39.1844 121.228C38.0644 119.948 37.5444 118.468 37.6244 116.788C37.7044 115.108 38.3444 113.068 39.5444 110.668L69.6644 48.2681C70.6244 46.3481 72.0244 44.8281 73.8644 43.7081C75.7844 42.5081 77.7444 41.9081 79.7444 41.9081C81.1844 41.9081 82.5044 42.1881 83.7044 42.7481C84.9844 43.2281 86.1444 43.9481 87.1844 44.9081C88.2244 45.8681 89.0644 47.0281 89.7044 48.3881L119.824 110.668ZM60.6644 108.508L69.7844 89.7881H89.5844L98.7044 108.508H60.6644ZM156.297 125.668C152.377 125.668 148.977 124.828 146.097 123.148C143.217 121.388 140.857 119.068 139.017 116.188C137.177 113.228 135.817 109.948 134.937 106.348C134.057 102.668 133.657 98.8681 133.737 94.9481C133.817 91.1081 134.297 87.3881 135.177 83.7881C136.137 80.1881 137.537 76.9881 139.377 74.1881C141.217 71.3881 143.537 69.1881 146.337 67.5881C149.137 65.9081 152.457 65.0681 156.297 65.0681C159.817 65.0681 163.217 65.9081 166.497 67.5881C169.857 69.2681 172.857 71.5481 175.497 74.4281C178.137 77.2281 180.217 80.4281 181.737 84.0281C183.257 87.6281 184.017 91.3481 184.017 95.1881C184.017 99.1881 183.257 103.028 181.737 106.708C180.217 110.388 178.137 113.668 175.497 116.548C172.937 119.348 169.977 121.588 166.617 123.268C163.337 124.868 159.897 125.668 156.297 125.668ZM153.417 104.068C155.017 104.068 156.457 103.668 157.737 102.868C159.097 102.068 160.177 101.028 160.977 99.7481C161.777 98.3881 162.177 96.9481 162.177 95.4281C162.177 93.8281 161.777 92.3881 160.977 91.1081C160.257 89.7481 159.217 88.7081 157.857 87.9881C156.577 87.1881 155.137 86.7881 153.537 86.7881C151.937 86.7881 150.457 87.1881 149.097 87.9881C147.817 88.7881 146.777 89.8281 145.977 91.1081C145.257 92.3881 144.897 93.8281 144.897 95.4281C144.897 96.9481 145.297 98.3881 146.097 99.7481C146.897 101.028 147.937 102.068 149.217 102.868C150.497 103.668 151.897 104.068 153.417 104.068ZM133.737 125.788C130.137 125.788 127.577 125.268 126.057 124.228C124.537 123.108 123.617 121.708 123.297 120.028C123.057 118.348 122.937 116.628 122.937 114.868V48.2681C122.937 46.4281 123.097 44.7081 123.417 43.1081C123.737 41.4281 124.657 40.0681 126.177 39.0281C127.697 37.9881 130.257 37.4681 133.857 37.4681C137.457 37.4681 139.977 38.0281 141.417 39.1481C142.857 40.1881 143.697 41.5481 143.937 43.2281C144.177 44.9081 144.257 46.6281 144.177 48.3881V119.788C143.617 121.868 142.537 123.388 140.937 124.348C139.417 125.308 137.017 125.788 133.737 125.788ZM216.382 126.988C212.702 126.988 208.982 126.268 205.222 124.828C201.462 123.308 197.982 121.188 194.782 118.468C191.662 115.668 189.142 112.348 187.222 108.508C185.382 104.588 184.462 100.228 184.462 95.4281C184.462 91.0281 185.302 86.9081 186.982 83.0681C188.662 79.2281 190.942 75.8681 193.822 72.9881C196.782 70.0281 200.142 67.7081 203.902 66.0281C207.742 64.3481 211.822 63.5081 216.142 63.5081C222.062 63.5081 227.422 64.9481 232.222 67.8281C237.022 70.6281 240.862 74.4281 243.742 79.2281C246.622 84.0281 248.062 89.3881 248.062 95.3081C248.062 100.348 247.102 104.828 245.182 108.748C243.262 112.668 240.742 115.988 237.622 118.708C234.502 121.428 231.062 123.468 227.302 124.828C223.622 126.268 219.982 126.988 216.382 126.988ZM216.142 105.028C217.342 105.028 218.702 104.748 220.222 104.188C221.822 103.548 223.182 102.508 224.302 101.068C225.502 99.6281 226.102 97.6681 226.102 95.1881C226.102 93.1881 225.662 91.4681 224.782 90.0281C223.982 88.5881 222.822 87.4681 221.302 86.6681C219.782 85.8681 218.022 85.4681 216.022 85.4681C214.262 85.4681 212.662 85.9081 211.222 86.7881C209.782 87.5881 208.622 88.7481 207.742 90.2681C206.862 91.7081 206.422 93.3881 206.422 95.3081C206.422 97.7081 206.982 99.6281 208.102 101.068C209.222 102.508 210.542 103.548 212.062 104.188C213.582 104.748 214.942 105.028 216.142 105.028ZM277.536 125.668C273.696 125.668 270.096 124.908 266.736 123.388C263.456 121.868 260.576 119.748 258.096 117.028C255.616 114.228 253.696 110.988 252.336 107.308C250.976 103.628 250.296 99.6281 250.296 95.3081V75.7481C250.296 73.9081 250.456 72.1881 250.776 70.5881C251.096 68.9081 252.016 67.5481 253.536 66.5081C255.056 65.3881 257.616 64.8281 261.216 64.8281C264.896 64.8281 267.456 65.3881 268.896 66.5081C270.416 67.5481 271.336 68.9081 271.656 70.5881C271.976 72.2681 272.136 74.0281 272.136 75.8681V95.3081C272.136 97.1481 272.456 98.7081 273.096 99.9881C273.816 101.268 274.816 102.268 276.096 102.988C277.456 103.628 279.016 103.948 280.776 103.948C282.536 103.948 284.056 103.588 285.336 102.868C286.616 102.148 287.616 101.148 288.336 99.8681C289.056 98.5881 289.416 97.0681 289.416 95.3081V75.6281C289.416 73.7881 289.576 72.0681 289.896 70.4681C290.216 68.7881 291.136 67.4281 292.656 66.3881C294.176 65.3481 296.736 64.8281 300.336 64.8281C304.016 64.8281 306.576 65.3881 308.016 66.5081C309.536 67.5481 310.456 68.9081 310.776 70.5881C311.096 72.2681 311.256 73.9881 311.256 75.7481V115.228C311.256 116.988 311.096 118.668 310.776 120.268C310.456 121.868 309.536 123.188 308.016 124.228C306.496 125.268 303.936 125.788 300.336 125.788C297.696 125.788 295.616 125.468 294.096 124.828C292.656 124.268 291.616 123.548 290.976 122.668C290.336 121.708 289.936 120.788 289.776 119.908C289.696 118.948 289.656 118.148 289.656 117.508L291.696 118.108C291.696 118.108 291.376 118.508 290.736 119.308C290.096 120.028 289.136 120.908 287.856 121.948C286.656 122.908 285.176 123.788 283.416 124.588C281.736 125.308 279.776 125.668 277.536 125.668ZM348.139 125.908C343.899 125.908 340.219 125.428 337.099 124.468C333.979 123.508 331.379 122.028 329.299 120.028C327.299 118.028 325.779 115.508 324.739 112.468C323.779 109.428 323.299 105.868 323.299 101.788V55.2281C323.299 53.3881 323.459 51.7081 323.779 50.1881C324.099 48.5881 325.019 47.3081 326.539 46.3481C328.059 45.3081 330.619 44.7881 334.219 44.7881C337.739 44.7881 340.259 45.3481 341.779 46.4681C343.299 47.5081 344.219 48.8681 344.539 50.5481C344.859 52.2281 345.019 53.9481 345.019 55.7081V100.708C345.019 101.588 345.059 102.348 345.139 102.988C345.299 103.548 345.499 103.988 345.739 104.308C345.979 104.628 346.299 104.868 346.699 105.028C347.099 105.188 347.619 105.268 348.259 105.268C350.339 105.268 352.179 105.428 353.779 105.748C355.459 106.068 356.739 106.908 357.619 108.268C358.579 109.628 359.059 111.908 359.059 115.108C359.059 118.708 358.499 121.268 357.379 122.788C356.259 124.308 354.859 125.188 353.179 125.428C351.499 125.748 349.819 125.908 348.139 125.908ZM320.779 65.6681H334.819L351.379 65.0681C353.139 65.0681 354.819 65.2281 356.419 65.5481C358.099 65.8681 359.459 66.7881 360.499 68.3081C361.619 69.8281 362.179 72.4281 362.179 76.1081C362.179 79.4681 361.619 81.9081 360.499 83.4281C359.459 84.9481 358.099 85.9081 356.419 86.3081C354.819 86.7081 353.099 86.9081 351.259 86.9081L336.019 86.5481H320.299C317.579 86.3881 315.699 85.5081 314.659 83.9081C313.619 82.3081 313.099 79.6681 313.099 75.9881C313.099 72.5481 313.739 69.9881 315.019 68.3081C316.299 66.5481 318.219 65.6681 320.779 65.6681ZM416.427 125.668C412.587 125.668 408.987 124.908 405.627 123.388C402.347 121.868 399.467 119.748 396.987 117.028C394.507 114.228 392.587 110.988 391.227 107.308C389.867 103.628 389.187 99.6281 389.187 95.3081V75.7481C389.187 73.9081 389.347 72.1881 389.667 70.5881C389.987 68.9081 390.907 67.5481 392.427 66.5081C393.947 65.3881 396.507 64.8281 400.107 64.8281C403.787 64.8281 406.347 65.3881 407.787 66.5081C409.307 67.5481 410.227 68.9081 410.547 70.5881C410.867 72.2681 411.027 74.0281 411.027 75.8681V95.3081C411.027 97.1481 411.347 98.7081 411.987 99.9881C412.707 101.268 413.707 102.268 414.987 102.988C416.347 103.628 417.907 103.948 419.667 103.948C421.427 103.948 422.947 103.588 424.227 102.868C425.507 102.148 426.507 101.148 427.227 99.8681C427.947 98.5881 428.307 97.0681 428.307 95.3081V75.6281C428.307 73.7881 428.467 72.0681 428.787 70.4681C429.107 68.7881 430.027 67.4281 431.547 66.3881C433.067 65.3481 435.627 64.8281 439.227 64.8281C442.907 64.8281 445.467 65.3881 446.907 66.5081C448.427 67.5481 449.347 68.9081 449.667 70.5881C449.987 72.2681 450.147 73.9881 450.147 75.7481V115.228C450.147 116.988 449.987 118.668 449.667 120.268C449.347 121.868 448.427 123.188 446.907 124.228C445.387 125.268 442.827 125.788 439.227 125.788C436.587 125.788 434.507 125.468 432.987 124.828C431.547 124.268 430.507 123.548 429.867 122.668C429.227 121.708 428.827 120.788 428.667 119.908C428.587 118.948 428.547 118.148 428.547 117.508L430.587 118.108C430.587 118.108 430.267 118.508 429.627 119.308C428.987 120.028 428.027 120.908 426.747 121.948C425.547 122.908 424.067 123.788 422.307 124.588C420.627 125.308 418.667 125.668 416.427 125.668ZM477.07 126.988C474.83 126.988 472.31 126.708 469.51 126.148C466.79 125.668 464.11 124.948 461.47 123.988C458.91 122.948 456.79 121.748 455.11 120.388C453.43 119.028 452.59 117.468 452.59 115.708C452.59 114.908 452.75 114.028 453.07 113.068C453.47 112.028 453.99 110.908 454.63 109.708C455.27 108.508 456.07 107.228 457.03 105.868C457.59 105.068 458.23 104.468 458.95 104.068C459.75 103.668 460.67 103.468 461.71 103.468C463.15 103.468 464.55 103.788 465.91 104.428C467.27 104.988 468.63 105.668 469.99 106.468C471.35 107.188 472.75 107.868 474.19 108.508C475.71 109.068 477.31 109.348 478.99 109.348C480.51 109.348 481.63 109.188 482.35 108.868C483.15 108.548 483.55 108.068 483.55 107.428C483.55 106.788 483.27 106.268 482.71 105.868C482.23 105.468 481.51 105.148 480.55 104.908C479.67 104.588 478.63 104.308 477.43 104.068C476.23 103.828 474.95 103.548 473.59 103.228C472.23 102.908 470.83 102.508 469.39 102.028C467.55 101.468 465.75 100.748 463.99 99.8681C462.23 98.9081 460.63 97.6681 459.19 96.1481C457.83 94.6281 456.71 92.7881 455.83 90.6281C455.03 88.4681 454.63 85.8281 454.63 82.7081C454.63 78.5481 455.59 75.0681 457.51 72.2681C459.43 69.4681 462.27 67.3481 466.03 65.9081C469.79 64.4681 474.43 63.7481 479.95 63.7481C481.31 63.7481 482.67 63.8281 484.03 63.9881C485.39 64.1481 486.75 64.3881 488.11 64.7081C489.55 65.0281 490.95 65.4681 492.31 66.0281C493.75 66.5081 495.19 67.0681 496.63 67.7081C499.59 68.9881 501.11 70.7881 501.19 73.1081C501.27 75.3481 500.43 77.7081 498.67 80.1881C497.71 81.7081 496.71 82.8681 495.67 83.6681C494.71 84.3881 493.71 84.7481 492.67 84.7481C491.39 84.7481 489.99 84.3881 488.47 83.6681C486.95 82.9481 485.35 82.2281 483.67 81.5081C481.99 80.7881 480.31 80.4281 478.63 80.4281C477.67 80.4281 476.83 80.5481 476.11 80.7881C475.47 80.9481 474.99 81.2281 474.67 81.6281C474.35 81.9481 474.19 82.3481 474.19 82.8281C474.19 83.7081 474.47 84.4281 475.03 84.9881C475.67 85.4681 476.47 85.8681 477.43 86.1881C478.47 86.5081 479.63 86.7881 480.91 87.0281C482.27 87.2681 483.71 87.5081 485.23 87.7481C487.31 88.0681 489.43 88.5881 491.59 89.3081C493.83 89.9481 495.87 90.9081 497.71 92.1881C499.55 93.4681 501.03 95.2281 502.15 97.4681C503.27 99.7081 503.83 102.628 503.83 106.228C503.83 113.028 501.55 118.188 496.99 121.708C492.51 125.228 485.87 126.988 477.07 126.988Z" fill="white"/>
</g>
<defs>
<filter id="filter0_d_138_6628" x="0.504395" y="0.468262" width="540.326" height="164.36" filterUnits="userSpaceOnUse" color-interpolation-filters="sRGB">
<feFlood flood-opacity="0" result="BackgroundImageFix"/>
<feColorMatrix in="SourceAlpha" type="matrix" values="0 0 0 0 0 0 0 0 0 0 0 0 0 0 0 0 0 0 127 0" result="hardAlpha"/>
<feOffset/>
<feGaussianBlur stdDeviation="18.5"/>
<feComposite in2="hardAlpha" operator="out"/>
<feColorMatrix type="matrix" values="0 0 0 0 0.849731 0 0 0 0 0.820833 0 0 0 0 1 0 0 0 0.44 0"/>
<feBlend mode="normal" in2="BackgroundImageFix" result="effect1_dropShadow_138_6628"/>
<feBlend mode="normal" in="SourceGraphic" in2="effect1_dropShadow_138_6628" result="shape"/>
</filter>
</defs>
</svg>
