<svg width="257" height="105" viewBox="0 0 257 105" fill="none" xmlns="http://www.w3.org/2000/svg">
<g filter="url(#filter0_d_419_13680)">
<path d="M20.5928 94.08C16.9928 94.08 14.4328 93.56 12.9128 92.52C11.3928 91.4 10.4728 90 10.1528 88.32C9.83279 86.56 9.67279 84.8 9.67279 83.04V21C9.67279 16.84 10.4728 14 12.0728 12.48C13.7528 10.88 16.7128 10.08 20.9528 10.08H64.8728C66.7128 10.08 68.4328 10.24 70.0328 10.56C71.7128 10.88 73.0728 11.8 74.1128 13.32C75.1528 14.84 75.6728 17.44 75.6728 21.12C75.6728 24.72 75.1128 27.28 73.9928 28.8C72.9528 30.32 71.5928 31.24 69.9128 31.56C68.2328 31.88 66.4728 32.04 64.6328 32.04H31.6328V42.72H53.7128C55.5528 42.72 57.1928 42.88 58.6328 43.2C60.1528 43.44 61.3128 44.24 62.1128 45.6C62.9928 46.88 63.4328 49.12 63.4328 52.32C63.4328 55.36 62.9928 57.52 62.1128 58.8C61.2328 60.08 60.0328 60.84 58.5128 61.08C57.0728 61.32 55.4328 61.44 53.5928 61.44H31.6328V83.16C31.6328 84.92 31.4728 86.64 31.1528 88.32C30.8328 90 29.9128 91.4 28.3928 92.52C26.8728 93.56 24.2728 94.08 20.5928 94.08ZM151.897 78.84C153.097 81.24 153.737 83.28 153.817 84.96C153.897 86.64 153.377 88.12 152.257 89.4C151.137 90.68 149.337 91.96 146.857 93.24C143.017 95.08 140.057 95.64 137.977 94.92C135.897 94.28 133.937 92 132.097 88.08L111.697 46.32L91.5372 88.2C89.6172 91.96 87.6172 94.16 85.5372 94.8C83.4572 95.52 80.5372 94.96 76.7772 93.12C74.2972 91.92 72.4572 90.68 71.2572 89.4C70.1372 88.12 69.6172 86.64 69.6972 84.96C69.7772 83.28 70.4172 81.24 71.6172 78.84L101.737 16.44C102.697 14.52 104.097 13 105.937 11.88C107.857 10.68 109.817 10.08 111.817 10.08C113.257 10.08 114.577 10.36 115.777 10.92C117.057 11.4 118.217 12.12 119.257 13.08C120.297 14.04 121.137 15.2 121.777 16.56L151.897 78.84ZM92.7372 76.68L101.857 57.96H121.657L130.777 76.68H92.7372ZM240.69 74.04C244.13 76.28 246.05 78.52 246.45 80.76C246.85 82.92 245.81 85.76 243.33 89.28C241.57 91.76 239.97 93.44 238.53 94.32C237.09 95.2 235.53 95.4 233.85 94.92C232.25 94.44 230.33 93.48 228.09 92.04L221.37 87.72C218.09 90.12 214.49 92 210.57 93.36C206.65 94.72 202.53 95.4 198.21 95.4C192.37 95.4 186.89 94.32 181.77 92.16C176.73 89.92 172.29 86.84 168.45 82.92C164.61 79 161.57 74.48 159.33 69.36C157.17 64.16 156.09 58.64 156.09 52.8C156.09 46.72 157.13 41.04 159.21 35.76C161.37 30.48 164.33 25.84 168.09 21.84C171.85 17.84 176.21 14.72 181.17 12.48C186.21 10.24 191.57 9.11999 197.25 9.11999C203.09 9.11999 208.53 10.24 213.57 12.48C218.69 14.64 223.17 17.68 227.01 21.6C230.85 25.52 233.85 30.12 236.01 35.4C238.17 40.6 239.25 46.24 239.25 52.32C239.25 55.52 238.89 58.64 238.17 61.68C237.53 64.72 236.57 67.64 235.29 70.44L240.69 74.04ZM197.61 73.44C200.33 73.44 202.89 72.92 205.29 71.88C207.69 70.76 209.77 69.28 211.53 67.44C213.37 65.52 214.77 63.28 215.73 60.72C216.77 58.08 217.29 55.28 217.29 52.32C217.29 49.36 216.77 46.6 215.73 44.04C214.69 41.48 213.25 39.24 211.41 37.32C209.65 35.32 207.57 33.8 205.17 32.76C202.85 31.64 200.37 31.08 197.73 31.08C195.01 31.08 192.45 31.64 190.05 32.76C187.65 33.8 185.53 35.32 183.69 37.32C181.93 39.24 180.53 41.48 179.49 44.04C178.53 46.6 178.05 49.36 178.05 52.32C178.05 55.28 178.57 58.04 179.61 60.6C180.65 63.16 182.05 65.4 183.81 67.32C185.65 69.24 187.73 70.76 190.05 71.88C192.45 72.92 194.97 73.44 197.61 73.44Z" fill="white"/>
</g>
<defs>
<filter id="filter0_d_419_13680" x="0.672852" y="0.120117" width="255.377" height="104.88" filterUnits="userSpaceOnUse" color-interpolation-filters="sRGB">
<feFlood flood-opacity="0" result="BackgroundImageFix"/>
<feColorMatrix in="SourceAlpha" type="matrix" values="0 0 0 0 0 0 0 0 0 0 0 0 0 0 0 0 0 0 127 0" result="hardAlpha"/>
<feOffset/>
<feGaussianBlur stdDeviation="4.5"/>
<feComposite in2="hardAlpha" operator="out"/>
<feColorMatrix type="matrix" values="0 0 0 0 0.849731 0 0 0 0 0.820833 0 0 0 0 1 0 0 0 1 0"/>
<feBlend mode="normal" in2="BackgroundImageFix" result="effect1_dropShadow_419_13680"/>
<feBlend mode="normal" in="SourceGraphic" in2="effect1_dropShadow_419_13680" result="shape"/>
</filter>
</defs>
</svg>
