<svg width="667" height="284" viewBox="0 0 667 284" fill="none" xmlns="http://www.w3.org/2000/svg">
<g filter="url(#filter0_d_152_7924)">
<path d="M63.8644 127.28C60.5044 127.28 57.4644 126.8 54.7444 125.84C52.0244 124.88 49.7044 123.76 47.7844 122.48C45.9444 121.2 44.5044 120.08 43.4644 119.12C42.5044 118.16 42.0244 117.68 42.0244 117.68C40.9844 116.56 40.0244 115.44 39.1444 114.32C38.2644 113.12 37.8244 111.76 37.8244 110.24C37.8244 108.96 38.1444 107.68 38.7844 106.4C39.5044 105.04 40.5844 103.6 42.0244 102.08C43.3844 100.64 44.7044 99.56 45.9844 98.84C47.2644 98.12 48.5444 97.76 49.8244 97.76C51.4244 97.76 52.8644 98.24 54.1444 99.2C55.5044 100.16 56.7044 101.2 57.7444 102.32C58.0644 102.56 58.5044 102.92 59.0644 103.4C59.6244 103.8 60.3444 104.2 61.2244 104.6C62.1044 104.92 63.1844 105.08 64.4644 105.08C65.7444 105.08 66.9044 104.88 67.9444 104.48C69.0644 104 69.9844 103.36 70.7044 102.56C71.5044 101.68 72.1044 100.68 72.5044 99.56C72.9044 98.36 73.1044 97.04 73.1044 95.6V53.96C73.1044 52.12 73.2644 50.28 73.5844 48.44C73.9844 46.6 74.9444 45.08 76.4644 43.88C78.0644 42.68 80.7044 42.08 84.3844 42.08C87.9044 42.08 90.3844 42.64 91.8244 43.76C93.3444 44.88 94.2644 46.32 94.5844 48.08C94.9844 49.76 95.1844 51.48 95.1844 53.24V96.44C95.1844 100.68 94.3844 104.68 92.7844 108.44C91.1844 112.12 88.9444 115.4 86.0644 118.28C83.1844 121.08 79.8244 123.28 75.9844 124.88C72.2244 126.48 68.1844 127.28 63.8644 127.28ZM130.374 127.16C126.694 127.16 122.974 126.44 119.214 125C115.454 123.48 111.974 121.36 108.774 118.64C105.654 115.84 103.134 112.52 101.214 108.68C99.3744 104.76 98.4544 100.4 98.4544 95.6C98.4544 91.2 99.2944 87.08 100.974 83.24C102.654 79.4 104.934 76.04 107.814 73.16C110.774 70.2 114.134 67.88 117.894 66.2C121.734 64.52 125.814 63.68 130.134 63.68C136.054 63.68 141.414 65.12 146.214 68C151.014 70.8 154.854 74.6 157.734 79.4C160.614 84.2 162.054 89.56 162.054 95.48C162.054 100.52 161.094 105 159.174 108.92C157.254 112.84 154.734 116.16 151.614 118.88C148.494 121.6 145.054 123.64 141.294 125C137.614 126.44 133.974 127.16 130.374 127.16ZM130.134 105.2C131.334 105.2 132.694 104.92 134.214 104.36C135.814 103.72 137.174 102.68 138.294 101.24C139.494 99.8 140.094 97.84 140.094 95.36C140.094 93.36 139.654 91.64 138.774 90.2C137.974 88.76 136.814 87.64 135.294 86.84C133.774 86.04 132.014 85.64 130.014 85.64C128.254 85.64 126.654 86.08 125.214 86.96C123.774 87.76 122.614 88.92 121.734 90.44C120.854 91.88 120.414 93.56 120.414 95.48C120.414 97.88 120.974 99.8 122.094 101.24C123.214 102.68 124.534 103.72 126.054 104.36C127.574 104.92 128.934 105.2 130.134 105.2ZM175.688 126.08C172.088 126.08 169.528 125.56 168.008 124.52C166.488 123.4 165.568 122 165.248 120.32C165.008 118.64 164.888 116.92 164.888 115.16V76.04C164.888 74.28 165.048 72.6 165.368 71C165.688 69.32 166.608 67.96 168.128 66.92C169.648 65.8 172.208 65.24 175.808 65.24C179.408 65.24 181.928 65.8 183.368 66.92C184.888 67.96 185.808 69.32 186.128 71C186.448 72.68 186.608 74.44 186.608 76.28V115.28C186.608 117.04 186.448 118.76 186.128 120.44C185.808 122.12 184.888 123.48 183.368 124.52C181.928 125.56 179.368 126.08 175.688 126.08ZM175.688 59.36C172.088 59.36 169.528 58.84 168.008 57.8C166.488 56.68 165.568 55.28 165.248 53.6C165.008 51.92 164.888 50.2 164.888 48.44C164.888 46.6 165.048 44.88 165.368 43.28C165.688 41.6 166.608 40.24 168.128 39.2C169.648 38.16 172.208 37.64 175.808 37.64C179.408 37.64 181.928 38.2 183.368 39.32C184.888 40.36 185.808 41.72 186.128 43.4C186.448 45.08 186.608 46.8 186.608 48.56C186.608 50.32 186.448 52.04 186.128 53.72C185.808 55.4 184.888 56.76 183.368 57.8C181.928 58.84 179.368 59.36 175.688 59.36ZM202.206 125.96C198.606 125.96 196.046 125.44 194.526 124.4C193.006 123.28 192.086 121.88 191.766 120.2C191.526 118.52 191.406 116.8 191.406 115.04V75.56C191.406 73.8 191.566 72.12 191.886 70.52C192.206 68.92 193.126 67.64 194.646 66.68C196.166 65.64 198.726 65.12 202.326 65.12C205.606 65.12 207.966 65.56 209.406 66.44C210.926 67.24 211.886 68.24 212.286 69.44C212.686 70.64 212.846 71.76 212.766 72.8C212.766 73.76 212.846 74.36 213.006 74.6L212.046 75.32C211.966 74.12 212.406 72.92 213.366 71.72C214.406 70.52 215.726 69.44 217.326 68.48C219.006 67.44 220.766 66.64 222.606 66.08C224.526 65.44 226.326 65.12 228.006 65.12C232.006 65.12 235.526 65.88 238.566 67.4C241.606 68.92 244.126 71.08 246.126 73.88C248.206 76.6 249.766 79.8 250.806 83.48C251.846 87.16 252.366 91.16 252.366 95.48V115.16C252.366 116.92 252.206 118.64 251.886 120.32C251.566 122 250.646 123.36 249.126 124.4C247.686 125.44 245.126 125.96 241.446 125.96C237.766 125.96 235.166 125.44 233.646 124.4C232.126 123.28 231.206 121.88 230.886 120.2C230.566 118.52 230.406 116.8 230.406 115.04V95.48C230.406 93.64 230.046 92.08 229.326 90.8C228.686 89.52 227.726 88.56 226.446 87.92C225.246 87.2 223.726 86.84 221.886 86.84C220.126 86.84 218.566 87.2 217.206 87.92C215.926 88.64 214.926 89.64 214.206 90.92C213.486 92.2 213.126 93.72 213.126 95.48V115.16C213.126 116.92 212.966 118.64 212.646 120.32C212.326 122 211.406 123.36 209.886 124.4C208.446 125.44 205.886 125.96 202.206 125.96ZM314.257 126.08C310.017 126.08 306.337 125.6 303.217 124.64C300.097 123.68 297.497 122.2 295.417 120.2C293.417 118.2 291.897 115.68 290.857 112.64C289.897 109.6 289.417 106.04 289.417 101.96V55.4C289.417 53.56 289.577 51.88 289.897 50.36C290.217 48.76 291.137 47.48 292.657 46.52C294.177 45.48 296.737 44.96 300.337 44.96C303.857 44.96 306.377 45.52 307.897 46.64C309.417 47.68 310.337 49.04 310.657 50.72C310.977 52.4 311.137 54.12 311.137 55.88V100.88C311.137 101.76 311.177 102.52 311.257 103.16C311.417 103.72 311.617 104.16 311.857 104.48C312.097 104.8 312.417 105.04 312.817 105.2C313.217 105.36 313.737 105.44 314.377 105.44C316.457 105.44 318.297 105.6 319.897 105.92C321.577 106.24 322.857 107.08 323.737 108.44C324.697 109.8 325.177 112.08 325.177 115.28C325.177 118.88 324.617 121.44 323.497 122.96C322.377 124.48 320.977 125.36 319.297 125.6C317.617 125.92 315.937 126.08 314.257 126.08ZM286.897 65.84H300.937L317.497 65.24C319.257 65.24 320.937 65.4 322.537 65.72C324.217 66.04 325.577 66.96 326.617 68.48C327.737 70 328.297 72.6 328.297 76.28C328.297 79.64 327.737 82.08 326.617 83.6C325.577 85.12 324.217 86.08 322.537 86.48C320.937 86.88 319.217 87.08 317.377 87.08L302.137 86.72H286.417C283.697 86.56 281.817 85.68 280.777 84.08C279.737 82.48 279.217 79.84 279.217 76.16C279.217 72.72 279.857 70.16 281.137 68.48C282.417 66.72 284.337 65.84 286.897 65.84ZM340.622 126.08C337.022 126.08 334.462 125.56 332.942 124.52C331.422 123.4 330.502 122 330.182 120.32C329.942 118.64 329.822 116.92 329.822 115.16V48.44C329.822 46.6 329.982 44.88 330.302 43.28C330.622 41.6 331.542 40.24 333.062 39.2C334.582 38.16 337.142 37.64 340.742 37.64C344.342 37.64 346.862 38.2 348.302 39.32C349.822 40.36 350.742 41.72 351.062 43.4C351.382 45 351.542 46.72 351.542 48.56V70.4C352.742 69.28 354.342 68.16 356.342 67.04C358.422 65.84 360.822 65.24 363.542 65.24C368.662 65.24 373.262 66.6 377.342 69.32C381.422 71.96 384.662 75.56 387.062 80.12C389.462 84.68 390.662 89.84 390.662 95.6V115.28C390.662 117.04 390.502 118.76 390.182 120.44C389.862 122.04 388.942 123.4 387.422 124.52C385.982 125.56 383.422 126.08 379.742 126.08C376.222 126.08 373.662 125.56 372.062 124.52C370.542 123.48 369.622 122.12 369.302 120.44C368.982 118.76 368.822 116.96 368.822 115.04V95.48C368.822 93.72 368.502 92.24 367.862 91.04C367.222 89.76 366.302 88.76 365.102 88.04C363.902 87.32 362.462 86.96 360.782 86.96C358.622 86.96 356.622 87.64 354.782 89C352.942 90.36 351.862 91.92 351.542 93.68V115.28C351.542 117.04 351.382 118.76 351.062 120.44C350.742 122.12 349.822 123.48 348.302 124.52C346.862 125.56 344.302 126.08 340.622 126.08ZM425.639 127.4C419.639 127.4 414.559 126.44 410.399 124.52C406.239 122.52 402.879 119.96 400.319 116.84C397.759 113.64 395.879 110.2 394.679 106.52C393.479 102.84 392.879 99.28 392.879 95.84C392.879 89.52 394.279 83.96 397.079 79.16C399.879 74.36 403.759 70.6 408.719 67.88C413.679 65.16 419.359 63.8 425.759 63.8C430.719 63.8 434.959 64.6 438.479 66.2C441.999 67.8 444.839 69.84 446.999 72.32C449.239 74.8 450.879 77.44 451.919 80.24C452.959 83.04 453.479 85.64 453.479 88.04C453.479 92.6 452.359 96.08 450.119 98.48C447.879 100.88 444.999 102.08 441.479 102.08H415.919C416.239 103.36 416.879 104.48 417.839 105.44C418.879 106.32 420.159 107.04 421.679 107.6C423.199 108.08 424.839 108.32 426.599 108.32C428.359 108.32 429.919 108.24 431.279 108.08C432.639 107.84 433.799 107.56 434.759 107.24C435.799 106.92 436.719 106.6 437.519 106.28C438.399 105.96 439.159 105.72 439.799 105.56C440.519 105.32 441.199 105.2 441.839 105.2C443.279 105.2 444.599 105.68 445.799 106.64C446.999 107.6 448.079 109.04 449.039 110.96C449.599 112 449.999 113 450.239 113.96C450.479 114.84 450.599 115.68 450.599 116.48C450.599 118.88 449.599 120.88 447.599 122.48C445.679 124.08 442.879 125.28 439.199 126.08C435.519 126.96 430.999 127.4 425.639 127.4ZM415.919 90.8H429.359C430.479 90.8 431.279 90.56 431.759 90.08C432.319 89.6 432.599 88.88 432.599 87.92C432.599 86.88 432.279 86 431.639 85.28C431.079 84.56 430.279 84.04 429.239 83.72C428.199 83.32 426.959 83.12 425.519 83.12C423.599 83.12 421.919 83.52 420.479 84.32C419.039 85.04 417.919 86 417.119 87.2C416.399 88.32 415.999 89.52 415.919 90.8ZM81.1444 220.28C78.0244 220.28 74.5444 219.76 70.7044 218.72C66.8644 217.76 62.9844 216.2 59.0644 214.04C55.2244 211.88 51.6644 209.08 48.3844 205.64C45.1844 202.2 42.5844 198.08 40.5844 193.28C38.6644 188.48 37.7044 182.92 37.7044 176.6C37.7044 170.52 38.6644 165.16 40.5844 160.52C42.5844 155.88 45.1844 151.88 48.3844 148.52C51.5844 145.16 55.1044 142.44 58.9444 140.36C62.8644 138.28 66.7844 136.76 70.7044 135.8C74.6244 134.76 78.2244 134.24 81.5044 134.24C85.5844 134.24 89.1844 134.76 92.3044 135.8C95.4244 136.76 97.9444 137.8 99.8644 138.92C101.864 139.96 103.104 140.64 103.584 140.96C105.184 142 106.664 143.16 108.024 144.44C109.464 145.64 110.184 147.28 110.184 149.36C110.184 150.4 109.944 151.48 109.464 152.6C109.064 153.72 108.424 154.88 107.544 156.08C105.944 158.32 104.424 159.96 102.984 161C101.624 162.04 100.264 162.56 98.9044 162.56C97.8644 162.56 96.8644 162.32 95.9044 161.84C94.9444 161.36 93.7844 160.68 92.4244 159.8C91.8644 159.4 91.1444 158.96 90.2644 158.48C89.3844 157.92 88.1844 157.44 86.6644 157.04C85.1444 156.56 83.1444 156.32 80.6644 156.32C78.5844 156.32 76.3044 156.72 73.8244 157.52C71.4244 158.24 69.1444 159.44 66.9844 161.12C64.8244 162.72 63.0644 164.88 61.7044 167.6C60.3444 170.24 59.6644 173.44 59.6644 177.2C59.6644 181.04 60.3444 184.28 61.7044 186.92C63.1444 189.56 64.9444 191.72 67.1044 193.4C69.2644 195 71.5444 196.2 73.9444 197C76.4244 197.72 78.6644 198.08 80.6644 198.08C82.7444 198.08 84.5044 197.92 85.9444 197.6C87.3844 197.2 88.6644 196.68 89.7844 196.04C90.9844 195.4 92.0644 194.76 93.0244 194.12C93.9044 193.48 94.8644 192.92 95.9044 192.44C96.9444 191.96 97.9844 191.72 99.0244 191.72C100.384 191.72 101.744 192.28 103.104 193.4C104.464 194.52 105.904 196.24 107.424 198.56C108.304 199.92 108.944 201.2 109.344 202.4C109.824 203.52 110.064 204.56 110.064 205.52C110.064 207.52 109.344 209.12 107.904 210.32C106.544 211.52 105.064 212.6 103.464 213.56C102.904 213.88 101.704 214.6 99.8644 215.72C98.0244 216.84 95.5444 217.88 92.4244 218.84C89.3044 219.8 85.5444 220.28 81.1444 220.28ZM142.328 220.16C138.648 220.16 134.928 219.44 131.168 218C127.408 216.48 123.928 214.36 120.728 211.64C117.608 208.84 115.088 205.52 113.168 201.68C111.328 197.76 110.408 193.4 110.408 188.6C110.408 184.2 111.248 180.08 112.928 176.24C114.608 172.4 116.888 169.04 119.768 166.16C122.728 163.2 126.088 160.88 129.848 159.2C133.688 157.52 137.768 156.68 142.088 156.68C148.008 156.68 153.368 158.12 158.168 161C162.968 163.8 166.808 167.6 169.688 172.4C172.568 177.2 174.008 182.56 174.008 188.48C174.008 193.52 173.048 198 171.128 201.92C169.208 205.84 166.688 209.16 163.568 211.88C160.448 214.6 157.008 216.64 153.248 218C149.568 219.44 145.928 220.16 142.328 220.16ZM142.088 198.2C143.288 198.2 144.648 197.92 146.168 197.36C147.768 196.72 149.128 195.68 150.248 194.24C151.448 192.8 152.048 190.84 152.048 188.36C152.048 186.36 151.608 184.64 150.728 183.2C149.928 181.76 148.768 180.64 147.248 179.84C145.728 179.04 143.968 178.64 141.968 178.64C140.208 178.64 138.608 179.08 137.168 179.96C135.728 180.76 134.568 181.92 133.688 183.44C132.808 184.88 132.368 186.56 132.368 188.48C132.368 190.88 132.928 192.8 134.048 194.24C135.168 195.68 136.488 196.72 138.008 197.36C139.528 197.92 140.888 198.2 142.088 198.2ZM186.802 219.08C183.202 219.08 180.642 218.56 179.122 217.52C177.602 216.4 176.682 215 176.362 213.32C176.122 211.64 176.002 209.92 176.002 208.16V168.92C176.002 167.08 176.162 165.36 176.482 163.76C176.802 162.08 177.722 160.72 179.242 159.68C180.762 158.64 183.362 158.12 187.042 158.12C190.642 158.12 193.242 158.84 194.842 160.28C196.522 161.64 197.362 163.88 197.362 167L195.322 166.4C195.322 166.4 195.602 166 196.162 165.2C196.802 164.32 197.682 163.32 198.802 162.2C200.002 161.08 201.442 160.12 203.122 159.32C204.802 158.44 206.722 158 208.882 158C211.362 158 213.642 158.32 215.722 158.96C217.802 159.6 219.682 160.6 221.362 161.96C223.122 163.24 224.642 164.84 225.922 166.76C226.802 165.72 228.002 164.52 229.522 163.16C231.042 161.8 232.842 160.6 234.922 159.56C237.082 158.52 239.482 158 242.122 158C246.842 158 250.842 159.2 254.122 161.6C257.482 164 260.002 167.48 261.682 172.04C263.442 176.6 264.322 182.12 264.322 188.6V208.16C264.322 209.92 264.162 211.64 263.842 213.32C263.522 215 262.602 216.4 261.082 217.52C259.562 218.56 256.962 219.08 253.282 219.08C249.682 219.08 247.122 218.52 245.602 217.4C244.082 216.28 243.162 214.88 242.842 213.2C242.602 211.52 242.482 209.8 242.482 208.04V188.48C242.482 186.56 242.242 185 241.762 183.8C241.362 182.52 240.722 181.56 239.842 180.92C239.042 180.28 238.002 179.96 236.722 179.96C235.362 179.96 234.242 180.24 233.362 180.8C232.562 181.36 231.962 182.28 231.562 183.56C231.242 184.76 231.082 186.44 231.082 188.6V208.16C231.082 209.92 230.922 211.64 230.602 213.32C230.282 215 229.362 216.4 227.842 217.52C226.322 218.56 223.722 219.08 220.042 219.08C216.442 219.08 213.882 218.52 212.362 217.4C210.842 216.28 209.922 214.88 209.602 213.2C209.362 211.52 209.242 209.8 209.242 208.04V188.48C209.242 186.56 209.042 184.96 208.642 183.68C208.242 182.4 207.602 181.48 206.722 180.92C205.922 180.28 204.842 179.96 203.482 179.96C201.882 179.96 200.682 180.36 199.882 181.16C199.082 181.96 198.522 183 198.202 184.28C197.962 185.56 197.842 186.96 197.842 188.48V208.28C197.842 210.04 197.682 211.76 197.362 213.44C197.042 215.12 196.122 216.48 194.602 217.52C193.082 218.56 190.482 219.08 186.802 219.08ZM278.723 219.08C275.123 219.08 272.563 218.56 271.043 217.52C269.523 216.4 268.603 215 268.283 213.32C268.043 211.64 267.923 209.92 267.923 208.16V168.92C267.923 167.08 268.083 165.36 268.403 163.76C268.723 162.08 269.643 160.72 271.163 159.68C272.683 158.64 275.283 158.12 278.963 158.12C282.563 158.12 285.163 158.84 286.763 160.28C288.443 161.64 289.283 163.88 289.283 167L287.243 166.4C287.243 166.4 287.523 166 288.083 165.2C288.723 164.32 289.603 163.32 290.723 162.2C291.923 161.08 293.363 160.12 295.043 159.32C296.723 158.44 298.643 158 300.803 158C303.283 158 305.563 158.32 307.643 158.96C309.723 159.6 311.603 160.6 313.283 161.96C315.043 163.24 316.563 164.84 317.843 166.76C318.723 165.72 319.923 164.52 321.443 163.16C322.963 161.8 324.763 160.6 326.843 159.56C329.003 158.52 331.403 158 334.043 158C338.763 158 342.763 159.2 346.043 161.6C349.403 164 351.923 167.48 353.603 172.04C355.363 176.6 356.243 182.12 356.243 188.6V208.16C356.243 209.92 356.083 211.64 355.763 213.32C355.443 215 354.523 216.4 353.003 217.52C351.483 218.56 348.883 219.08 345.203 219.08C341.603 219.08 339.043 218.52 337.523 217.4C336.003 216.28 335.083 214.88 334.763 213.2C334.523 211.52 334.403 209.8 334.403 208.04V188.48C334.403 186.56 334.163 185 333.683 183.8C333.283 182.52 332.643 181.56 331.763 180.92C330.963 180.28 329.923 179.96 328.643 179.96C327.283 179.96 326.163 180.24 325.283 180.8C324.483 181.36 323.883 182.28 323.483 183.56C323.163 184.76 323.003 186.44 323.003 188.6V208.16C323.003 209.92 322.843 211.64 322.523 213.32C322.203 215 321.283 216.4 319.763 217.52C318.243 218.56 315.643 219.08 311.963 219.08C308.363 219.08 305.803 218.52 304.283 217.4C302.763 216.28 301.843 214.88 301.523 213.2C301.283 211.52 301.163 209.8 301.163 208.04V188.48C301.163 186.56 300.963 184.96 300.563 183.68C300.163 182.4 299.523 181.48 298.643 180.92C297.843 180.28 296.763 179.96 295.403 179.96C293.803 179.96 292.603 180.36 291.803 181.16C291.003 181.96 290.443 183 290.123 184.28C289.883 185.56 289.763 186.96 289.763 188.48V208.28C289.763 210.04 289.603 211.76 289.283 213.44C288.963 215.12 288.043 216.48 286.523 217.52C285.003 218.56 282.403 219.08 278.723 219.08ZM387.325 218.84C383.485 218.84 379.885 218.08 376.525 216.56C373.245 215.04 370.365 212.92 367.885 210.2C365.405 207.4 363.485 204.16 362.125 200.48C360.765 196.8 360.085 192.8 360.085 188.48V168.92C360.085 167.08 360.245 165.36 360.565 163.76C360.885 162.08 361.805 160.72 363.325 159.68C364.845 158.56 367.405 158 371.005 158C374.685 158 377.245 158.56 378.685 159.68C380.205 160.72 381.125 162.08 381.445 163.76C381.765 165.44 381.925 167.2 381.925 169.04V188.48C381.925 190.32 382.245 191.88 382.885 193.16C383.605 194.44 384.605 195.44 385.885 196.16C387.245 196.8 388.805 197.12 390.565 197.12C392.325 197.12 393.845 196.76 395.125 196.04C396.405 195.32 397.405 194.32 398.125 193.04C398.845 191.76 399.205 190.24 399.205 188.48V168.8C399.205 166.96 399.365 165.24 399.685 163.64C400.005 161.96 400.925 160.6 402.445 159.56C403.965 158.52 406.525 158 410.125 158C413.805 158 416.365 158.56 417.805 159.68C419.325 160.72 420.245 162.08 420.565 163.76C420.885 165.44 421.045 167.16 421.045 168.92V208.4C421.045 210.16 420.885 211.84 420.565 213.44C420.245 215.04 419.325 216.36 417.805 217.4C416.285 218.44 413.725 218.96 410.125 218.96C407.485 218.96 405.405 218.64 403.885 218C402.445 217.44 401.405 216.72 400.765 215.84C400.125 214.88 399.725 213.96 399.565 213.08C399.485 212.12 399.445 211.32 399.445 210.68L401.485 211.28C401.485 211.28 401.165 211.68 400.525 212.48C399.885 213.2 398.925 214.08 397.645 215.12C396.445 216.08 394.965 216.96 393.205 217.76C391.525 218.48 389.565 218.84 387.325 218.84ZM436.088 218.96C432.488 218.96 429.928 218.44 428.408 217.4C426.888 216.28 425.968 214.88 425.648 213.2C425.408 211.52 425.288 209.8 425.288 208.04V168.56C425.288 166.8 425.448 165.12 425.768 163.52C426.088 161.92 427.008 160.64 428.528 159.68C430.048 158.64 432.608 158.12 436.208 158.12C439.488 158.12 441.848 158.56 443.288 159.44C444.808 160.24 445.768 161.24 446.168 162.44C446.568 163.64 446.728 164.76 446.648 165.8C446.648 166.76 446.728 167.36 446.888 167.6L445.928 168.32C445.848 167.12 446.288 165.92 447.248 164.72C448.288 163.52 449.608 162.44 451.208 161.48C452.888 160.44 454.648 159.64 456.488 159.08C458.408 158.44 460.208 158.12 461.888 158.12C465.888 158.12 469.408 158.88 472.448 160.4C475.488 161.92 478.008 164.08 480.008 166.88C482.088 169.6 483.648 172.8 484.688 176.48C485.728 180.16 486.248 184.16 486.248 188.48V208.16C486.248 209.92 486.088 211.64 485.768 213.32C485.448 215 484.528 216.36 483.008 217.4C481.568 218.44 479.008 218.96 475.328 218.96C471.648 218.96 469.048 218.44 467.528 217.4C466.008 216.28 465.088 214.88 464.768 213.2C464.448 211.52 464.288 209.8 464.288 208.04V188.48C464.288 186.64 463.928 185.08 463.208 183.8C462.568 182.52 461.608 181.56 460.328 180.92C459.128 180.2 457.608 179.84 455.768 179.84C454.008 179.84 452.448 180.2 451.088 180.92C449.808 181.64 448.808 182.64 448.088 183.92C447.368 185.2 447.008 186.72 447.008 188.48V208.16C447.008 209.92 446.848 211.64 446.528 213.32C446.208 215 445.288 216.36 443.768 217.4C442.328 218.44 439.768 218.96 436.088 218.96ZM501.657 219.08C498.057 219.08 495.497 218.56 493.977 217.52C492.457 216.4 491.537 215 491.217 213.32C490.977 211.64 490.857 209.92 490.857 208.16V169.04C490.857 167.28 491.017 165.6 491.337 164C491.657 162.32 492.577 160.96 494.097 159.92C495.617 158.8 498.177 158.24 501.777 158.24C505.377 158.24 507.897 158.8 509.337 159.92C510.857 160.96 511.777 162.32 512.097 164C512.417 165.68 512.577 167.44 512.577 169.28V208.28C512.577 210.04 512.417 211.76 512.097 213.44C511.777 215.12 510.857 216.48 509.337 217.52C507.897 218.56 505.337 219.08 501.657 219.08ZM501.657 152.36C498.057 152.36 495.497 151.84 493.977 150.8C492.457 149.68 491.537 148.28 491.217 146.6C490.977 144.92 490.857 143.2 490.857 141.44C490.857 139.6 491.017 137.88 491.337 136.28C491.657 134.6 492.577 133.24 494.097 132.2C495.617 131.16 498.177 130.64 501.777 130.64C505.377 130.64 507.897 131.2 509.337 132.32C510.857 133.36 511.777 134.72 512.097 136.4C512.417 138.08 512.577 139.8 512.577 141.56C512.577 143.32 512.417 145.04 512.097 146.72C511.777 148.4 510.857 149.76 509.337 150.8C507.897 151.84 505.337 152.36 501.657 152.36ZM550.014 219.08C545.774 219.08 542.094 218.6 538.974 217.64C535.854 216.68 533.254 215.2 531.174 213.2C529.174 211.2 527.654 208.68 526.614 205.64C525.654 202.6 525.174 199.04 525.174 194.96V148.4C525.174 146.56 525.334 144.88 525.654 143.36C525.974 141.76 526.894 140.48 528.414 139.52C529.934 138.48 532.494 137.96 536.094 137.96C539.614 137.96 542.134 138.52 543.654 139.64C545.174 140.68 546.094 142.04 546.414 143.72C546.734 145.4 546.894 147.12 546.894 148.88V193.88C546.894 194.76 546.934 195.52 547.014 196.16C547.174 196.72 547.374 197.16 547.614 197.48C547.854 197.8 548.174 198.04 548.574 198.2C548.974 198.36 549.494 198.44 550.134 198.44C552.214 198.44 554.054 198.6 555.654 198.92C557.334 199.24 558.614 200.08 559.494 201.44C560.454 202.8 560.934 205.08 560.934 208.28C560.934 211.88 560.374 214.44 559.254 215.96C558.134 217.48 556.734 218.36 555.054 218.6C553.374 218.92 551.694 219.08 550.014 219.08ZM522.654 158.84H536.694L553.254 158.24C555.014 158.24 556.694 158.4 558.294 158.72C559.974 159.04 561.334 159.96 562.374 161.48C563.494 163 564.054 165.6 564.054 169.28C564.054 172.64 563.494 175.08 562.374 176.6C561.334 178.12 559.974 179.08 558.294 179.48C556.694 179.88 554.974 180.08 553.134 180.08L537.894 179.72H522.174C519.454 179.56 517.574 178.68 516.534 177.08C515.494 175.48 514.974 172.84 514.974 169.16C514.974 165.72 515.614 163.16 516.894 161.48C518.174 159.72 520.094 158.84 522.654 158.84ZM583.728 243.68C579.808 241.92 577.528 239.96 576.888 237.8C576.248 235.72 576.768 232.96 578.448 229.52L607.608 164.24C609.288 160.48 611.088 158.24 613.008 157.52C614.928 156.8 617.888 157.24 621.888 158.84C625.728 160.6 627.968 162.48 628.608 164.48C629.328 166.48 628.928 169.16 627.408 172.52L598.008 238.4C596.408 242.16 594.608 244.4 592.608 245.12C590.688 245.92 587.728 245.44 583.728 243.68ZM593.448 217.28L564.888 174.08C562.808 170.88 561.968 168.24 562.368 166.16C562.768 164 564.688 161.84 568.128 159.68C571.888 157.36 574.768 156.48 576.768 157.04C578.848 157.52 580.968 159.4 583.128 162.68L602.568 192.08L593.448 217.28Z" fill="white"/>
</g>
<defs>
<filter id="filter0_d_152_7924" x="0.70459" y="0.639648" width="665.983" height="282.681" filterUnits="userSpaceOnUse" color-interpolation-filters="sRGB">
<feFlood flood-opacity="0" result="BackgroundImageFix"/>
<feColorMatrix in="SourceAlpha" type="matrix" values="0 0 0 0 0 0 0 0 0 0 0 0 0 0 0 0 0 0 127 0" result="hardAlpha"/>
<feOffset/>
<feGaussianBlur stdDeviation="18.5"/>
<feComposite in2="hardAlpha" operator="out"/>
<feColorMatrix type="matrix" values="0 0 0 0 0.849731 0 0 0 0 0.820833 0 0 0 0 1 0 0 0 0.44 0"/>
<feBlend mode="normal" in2="BackgroundImageFix" result="effect1_dropShadow_152_7924"/>
<feBlend mode="normal" in="SourceGraphic" in2="effect1_dropShadow_152_7924" result="shape"/>
</filter>
</defs>
</svg>
